{"accessors": {"accessor_buffer_Mesh.001_0": {"bufferView": "bufferView_buffer_Mesh.001_0", "byteOffset": 0, "byteStride": 24, "componentType": 5126, "count": 192, "max": [5.960464477539063e-08, 1.0000014305114746, 0.9999997019767761], "min": [-1.000000238418579, -0.9999983310699463, -1.000000238418579], "type": "VEC3"}, "accessor_buffer_Mesh.001_1": {"bufferView": "bufferView_buffer_Mesh.001_0", "byteOffset": 12, "byteStride": 24, "componentType": 5126, "count": 192, "max": [1.0, 0.9951847791671753, 0.9951847791671753], "min": [-1.0, -0.9951848983764648, -0.9951848387718201], "type": "VEC3"}, "accessor_buffer_Mesh.001_2": {"bufferView": "bufferView_buffer_Mesh.001_1", "byteOffset": 0, "byteStride": 2, "componentType": 5123, "count": 372, "max": [191], "min": [0], "type": "SCALAR"}, "accessor_buffer_Mesh.002_0": {"bufferView": "bufferView_buffer_Mesh.002_0", "byteOffset": 0, "byteStride": 36, "componentType": 5126, "count": 192, "max": [1.0, 0.9999998211860657, 0.999998152256012], "min": [-1.7881393432617188e-07, -0.9999999403953552, -1.0000017881393433], "type": "VEC3"}, "accessor_buffer_Mesh.002_1": {"bufferView": "bufferView_buffer_Mesh.002_0", "byteOffset": 12, "byteStride": 36, "componentType": 5126, "count": 192, "max": [1.0, 0.9951847195625305, 0.9951847195625305], "min": [-1.0, -0.9951847791671753, -0.9951848387718201], "type": "VEC3"}, "accessor_buffer_Mesh.002_2": {"bufferView": "bufferView_buffer_Mesh.002_0", "byteOffset": 24, "byteStride": 36, "componentType": 5126, "count": 192, "max": [1.0, 1.0, 1.0], "min": [1.0, 1.0, 1.0], "type": "VEC3"}, "accessor_buffer_Mesh.002_3": {"bufferView": "bufferView_buffer_Mesh.002_1", "byteOffset": 0, "byteStride": 2, "componentType": 5123, "count": 372, "max": [191], "min": [0], "type": "SCALAR"}, "accessor_buffer_Mesh_0": {"bufferView": "bufferView_buffer_Mesh_0", "byteOffset": 0, "byteStride": 24, "componentType": 5126, "count": 192, "max": [1.0, 0.9999995827674866, 0.9999997019767761], "min": [-1.7881393432617188e-07, -1.0000001192092896, -1.000000238418579], "type": "VEC3"}, "accessor_buffer_Mesh_1": {"bufferView": "bufferView_buffer_Mesh_0", "byteOffset": 12, "byteStride": 24, "componentType": 5126, "count": 192, "max": [1.0, 0.9951847195625305, 0.9951847195625305], "min": [-1.0, -0.9951847791671753, -0.9951848387718201], "type": "VEC3"}, "accessor_buffer_Mesh_2": {"bufferView": "bufferView_buffer_Mesh_1", "byteOffset": 0, "byteStride": 2, "componentType": 5123, "count": 372, "max": [191], "min": [0], "type": "SCALAR"}}, "asset": {"profile": {"api": "WebGL", "version": "1.0.3"}, "version": "1.0"}, "bufferViews": {"bufferView_buffer_Mesh.001_0": {"buffer": "buffer_combined", "byteLength": 4608, "byteOffset": 5352, "target": 34962}, "bufferView_buffer_Mesh.001_1": {"buffer": "buffer_combined", "byteLength": 744, "byteOffset": 9960, "target": 34963}, "bufferView_buffer_Mesh.002_0": {"buffer": "buffer_combined", "byteLength": 6912, "byteOffset": 10704, "target": 34962}, "bufferView_buffer_Mesh.002_1": {"buffer": "buffer_combined", "byteLength": 744, "byteOffset": 17616, "target": 34963}, "bufferView_buffer_Mesh_0": {"buffer": "buffer_combined", "byteLength": 4608, "byteOffset": 0, "target": 34962}, "bufferView_buffer_Mesh_1": {"buffer": "buffer_combined", "byteLength": 744, "byteOffset": 4608, "target": 34963}}, "buffers": {"buffer_combined": {"byteLength": 18360, "type": "arraybuffer", "uri": "data:text/plain;base64,"}}, "extensions": {"KHR_materials_common": {"lights": {}}}, "extensionsUsed": ["KHR_materials_common"], "materials": {"material_Material": {"extensions": {"KHR_materials_common": {"technique": "PHONG", "values": {"ambient": [1.0, 1.0, 1.0, 1.0], "diffuse": [0.0016673569334670901, 0.64000004529953, 0.0, 1.0], "doubleSided": false, "emission": [0.0, 0.0, 0.0, 1.0], "shininess": 50, "specular": [0.5, 0.5, 0.5, 1.0], "transparency": 1.0, "transparent": false}}}, "name": "Material"}, "material_Material.001": {"extensions": {"KHR_materials_common": {"technique": "PHONG", "values": {"ambient": [1.0, 1.0, 1.0, 1.0], "diffuse": [0.64000004529953, 0.001317530986852944, 0.0, 1.0], "doubleSided": false, "emission": [0.0, 0.0, 0.0, 1.0], "shininess": 50, "specular": [0.5, 0.5, 0.5, 1.0], "transparency": 1.0, "transparent": false}}}, "name": "Material.001"}, "material_Material.003": {"extensions": {"KHR_materials_common": {"technique": "PHONG", "values": {"ambient": [1.0, 1.0, 1.0, 1.0], "diffuse": [0.0, 0.00041128695011138916, 0.64000004529953, 1.0], "doubleSided": false, "emission": [0.0, 0.0, 0.0, 1.0], "shininess": 50, "specular": [0.5, 0.5, 0.5, 1.0], "transparency": 1.0, "transparent": false}}}, "name": "Material.003"}}, "meshes": {"mesh_Mesh": {"name": "Mesh", "primitives": [{"attributes": {"NORMAL": "accessor_buffer_Mesh_1", "POSITION": "accessor_buffer_Mesh_0"}, "indices": "accessor_buffer_Mesh_2", "material": "material_Material", "mode": 4}]}, "mesh_Mesh.001": {"name": "Mesh.001", "primitives": [{"attributes": {"NORMAL": "accessor_buffer_Mesh.001_1", "POSITION": "accessor_buffer_Mesh.001_0"}, "indices": "accessor_buffer_Mesh.001_2", "material": "material_Material.001", "mode": 4}]}, "mesh_Mesh.002": {"name": "Mesh.002", "primitives": [{"attributes": {"COLOR_0": "accessor_buffer_Mesh.002_2", "NORMAL": "accessor_buffer_Mesh.002_1", "POSITION": "accessor_buffer_Mesh.002_0"}, "indices": "accessor_buffer_Mesh.002_3", "material": "material_Material.003", "mode": 4}]}}, "nodes": {"node_Cylinder": {"children": [], "matrix": [2.2649371089755732e-07, 3.0, -1.1464113214504704e-14, 0.0, 0.30000007152557373, -2.2649375708283515e-08, -9.775243370313547e-08, 0.0, -9.775243370313547e-08, 6.233691541472977e-15, -0.30000007152557373, 0.0, 2.190840214864702e-14, 0.0, -1.5529405213436363e-21, 1.0], "meshes": ["mesh_Mesh"], "name": "Cylinder"}, "node_Cylinder.001": {"children": [], "matrix": [3.0, -1.1682431022563833e-06, -9.775241096576792e-07, 0.0, -1.1682433864734776e-07, -0.30000007152557373, 8.545789943747994e-15, 0.0, -9.775243370313547e-08, 2.9520412806946505e-14, -0.30000007152557373, 0.0, 3.0, 0.0, -1.0870584053302237e-21, 1.0], "meshes": ["mesh_Mesh.001"], "name": "Cylinder.001"}, "node_Cylinder.002": {"children": [], "matrix": [-1.5637594046941832e-15, -3.5774640139152325e-08, 3.0, 0.0, 9.535955136641405e-09, -0.30000007152557373, -3.577464990911494e-09, 0.0, 0.30000007152557373, 9.535955136641405e-09, 2.700910665503738e-16, 0.0, -2.6053232515159744e-14, 0.0, 2.639998825699664e-21, 1.0], "meshes": ["mesh_Mesh.002"], "name": "Cylinder.002"}, "node_scene_Scene_root": {"children": ["node_Cylinder.002", "node_Cylinder.001", "node_Cylinder"], "matrix": [1.0, 0.0, 0.0, 0.0, 0.0, -1.0, 0.0, 0.0, 0.0, 0.0, -1.0, 0.0, 0.0, 0.0, 0.0, 1.0], "name": "node_scene_Scene_root"}}, "samplers": {"sampler_default": {}}, "scene": "scene_Scene", "scenes": {"scene_Scene": {"extras": {"active_camera": null, "background_color": [0.05087608844041824, 0.05087608844041824, 0.05087608844041824], "frames_per_second": 24}, "name": "Scene", "nodes": ["node_scene_Scene_root"]}}}