{"accessors": {"accessor_buffer_Mesh.001_0": {"bufferView": "bufferView_buffer_Mesh.001_0", "byteOffset": 0, "byteStride": 32, "componentType": 5126, "count": 3649, "max": [9.129753112792969, 1.0889015197753906, 8.928983688354492], "min": [-8.887346267700195, -0.8402328491210938, -9.088115692138672], "type": "VEC3"}, "accessor_buffer_Mesh.001_1": {"bufferView": "bufferView_buffer_Mesh.001_0", "byteOffset": 12, "byteStride": 32, "componentType": 5126, "count": 3649, "max": [1.0, 1.0, 0.9999998807907104], "min": [-0.9999999403953552, -1.0, -0.9999999403953552], "type": "VEC3"}, "accessor_buffer_Mesh.001_2": {"bufferView": "bufferView_buffer_Mesh.001_0", "byteOffset": 24, "byteStride": 32, "componentType": 5126, "count": 3649, "max": [14.095849990844727, 4.94762110710144], "min": [-7.249396800994873, -4.105875015258789], "type": "VEC2"}, "accessor_buffer_Mesh.001_3": {"bufferView": "bufferView_buffer_Mesh.001_1", "byteOffset": 0, "byteStride": 2, "componentType": 5123, "count": 11034, "max": [3648], "min": [0], "type": "SCALAR"}, "accessor_buffer_Mesh_0": {"bufferView": "bufferView_buffer_Mesh_0", "byteOffset": 0, "byteStride": 32, "componentType": 5126, "count": 3649, "max": [9.003530502319336, 1.1048372983932495, 9.011672973632812], "min": [-9.013568878173828, -0.8242970705032349, -9.005426406860352], "type": "VEC3"}, "accessor_buffer_Mesh_1": {"bufferView": "bufferView_buffer_Mesh_0", "byteOffset": 12, "byteStride": 32, "componentType": 5126, "count": 3649, "max": [1.0, 1.0, 1.0], "min": [-0.9999999403953552, -1.0, -0.9999999403953552], "type": "VEC3"}, "accessor_buffer_Mesh_2": {"bufferView": "bufferView_buffer_Mesh_0", "byteOffset": 24, "byteStride": 32, "componentType": 5126, "count": 3649, "max": [14.095849990844727, 4.94762110710144], "min": [-7.249396800994873, -4.105875015258789], "type": "VEC2"}, "accessor_buffer_Mesh_3": {"bufferView": "bufferView_buffer_Mesh_1", "byteOffset": 0, "byteStride": 2, "componentType": 5123, "count": 11034, "max": [3648], "min": [0], "type": "SCALAR"}}, "asset": {"profile": {"api": "WebGL", "version": "1.0.3"}, "version": "1.0"}, "bufferViews": {"bufferView_buffer_Mesh.001_0": {"buffer": "buffer_combined", "byteLength": 116768, "byteOffset": 138836, "target": 34962}, "bufferView_buffer_Mesh.001_1": {"buffer": "buffer_combined", "byteLength": 22068, "byteOffset": 255604, "target": 34963}, "bufferView_buffer_Mesh_0": {"buffer": "buffer_combined", "byteLength": 116768, "byteOffset": 0, "target": 34962}, "bufferView_buffer_Mesh_1": {"buffer": "buffer_combined", "byteLength": 22068, "byteOffset": 116768, "target": 34963}}, "buffers": {"buffer_combined": {"byteLength": 277672, "type": "arraybuffer", "uri": "data:text/plain;base64,"}}, "cameras": {"camera_Camera": {"name": "Camera", "perspective": {"aspectRatio": 1.703595982340029, "yfov": 0.5033799409866333, "zfar": 100.0, "znear": 0.10000000149011612}, "type": "perspective"}}, "extensions": {"KHR_materials_common": {"lights": {"light_Lamp": {"name": "Lamp", "point": {"color": [1.0, 1.0, 1.0], "constantAttenuation": 1, "linearAttenuation": 0, "quadraticAttenuation": 0.03333335240683057}, "type": "point"}}}}, "extensionsUsed": ["KHR_materials_common"], "materials": {"material_Material": {"extensions": {"KHR_materials_common": {"technique": "PHONG", "values": {"ambient": [1.0, 1.0, 1.0, 1.0], "diffuse": [0.64000004529953, 0.64000004529953, 0.64000004529953, 1.0], "doubleSided": false, "emission": [0.0, 0.0, 0.0, 1.0], "shininess": 50, "specular": [0.5, 0.5, 0.5, 1.0], "transparency": 1.0, "transparent": false}}}, "name": "Material"}, "material_Material.002": {"extensions": {"KHR_materials_common": {"technique": "PHONG", "values": {"ambient": [1.0, 1.0, 1.0, 1.0], "diffuse": [0.64000004529953, 0.64000004529953, 0.64000004529953, 1.0], "doubleSided": false, "emission": [0.0, 0.0, 0.0, 1.0], "shininess": 50, "specular": [0.5, 0.5, 0.5, 1.0], "transparency": 1.0, "transparent": false}}}, "name": "Material.002"}}, "meshes": {"mesh_Mesh": {"name": "Mesh", "primitives": [{"attributes": {"NORMAL": "accessor_buffer_Mesh_1", "POSITION": "accessor_buffer_Mesh_0", "TEXCOORD_0": "accessor_buffer_Mesh_2"}, "indices": "accessor_buffer_Mesh_3", "material": "material_Material", "mode": 4}]}, "mesh_Mesh.001": {"name": "Mesh.001", "primitives": [{"attributes": {"NORMAL": "accessor_buffer_Mesh.001_1", "POSITION": "accessor_buffer_Mesh.001_0", "TEXCOORD_0": "accessor_buffer_Mesh.001_2"}, "indices": "accessor_buffer_Mesh.001_3", "material": "material_Material.002", "mode": 4}]}}, "nodes": {"node_Camera": {"camera": "camera_Camera", "children": [], "matrix": [0.6859206557273865, 0.7276763319969177, 0.0, 0.0, -0.32401347160339355, 0.305420845746994, 0.8953956365585327, 0.0, 0.6515582203865051, -0.6141703724861145, 0.44527140259742737, 0.0, 7.481131553649902, -6.5076398849487305, 5.34366512298584, 1.0], "name": "Camera"}, "node_Lamp": {"children": [], "extensions": {"KHR_materials_common": {"light": "light_Lamp"}}, "matrix": [-0.29086464643478394, 0.9551711678504944, -0.05518905818462372, 0.0, -0.7711008191108704, -0.1998833566904068, 0.6045247316360474, 0.0, 0.5663931965827942, 0.21839119493961334, 0.7946722507476807, 0.0, 4.076245307922363, 1.0054539442062378, 5.903861999511719, 1.0], "name": "Lamp"}, "node_model": {"children": [], "matrix": [0.0666033998131752, 0.0, 0.0, 0.0, 0.0, -0.10367344319820404, -3.3781095254425964e-08, 0.0, 0.0, 2.1702142305457528e-08, -0.0666033998131752, 0.0, 0.0, -0.03646501898765564, 0.0, 1.0], "meshes": ["mesh_Mesh"], "name": "model"}, "node_model.001": {"children": [], "matrix": [0.06654869019985199, 1.1798259591522253e-10, -0.0026991271879523993, 0.0, 5.507966860385238e-10, 0.10367344319820404, 1.811194927370252e-08, 0.0, 0.0026991271879523993, -1.1640524100187122e-08, 0.06654869019985199, 0.0, 0.0, 0.03994463384151459, 0.0, 1.0], "meshes": ["mesh_Mesh.001"], "name": "model.001"}, "node_scene_Scene_root": {"children": ["node_model.001", "node_model", "node_Lamp", "node_Camera"], "matrix": [1.0, 0.0, 0.0, 0.0, 0.0, -1.0, 0.0, 0.0, 0.0, 0.0, -1.0, 0.0, 0.0, 0.0, 0.0, 1.0], "name": "node_scene_Scene_root"}}, "samplers": {"sampler_default": {}}, "scene": "scene_Scene", "scenes": {"scene_Scene": {"extras": {"active_camera": "camera_Camera", "background_color": [0.05087608844041824, 0.05087608844041824, 0.05087608844041824], "frames_per_second": 24}, "name": "Scene", "nodes": ["node_scene_Scene_root"]}}}